<svg id="Layer_1" data-name="Layer 1" xmlns="http://www.w3.org/2000/svg" viewBox="0 0 541.14 98.98"><defs><style>.cls-1{fill:#706f6f;}.cls-2{fill:#be0738;}.cls-3{fill:#fff;}</style></defs><path class="cls-1" d="M96.36,97.15v2.33H84.57V80.94H96.05v2.38H87.51v5.47h8.26v2.3H87.51v6.06Z" transform="translate(-6.2 -6.87)"/><path class="cls-1" d="M102,90.37c-2-1-3.14-2.09-3.14-4.68,0-3.27,2.73-5,6.85-5a11.83,11.83,0,0,1,5.73,1.28l-1,2.17A10.88,10.88,0,0,0,105.74,83c-2.56,0-3.89,1-3.89,2.51a2.65,2.65,0,0,0,1.79,2.43c1.36.66,3.4,1.25,5,2.07s3.07,1.92,3.07,4.66c0,3.24-2.74,5.14-6.91,5.14a13.86,13.86,0,0,1-6.13-1.41l1.07-2.23a10.89,10.89,0,0,0,5,1.23c2.84,0,4.06-1.07,4.06-2.58a2.57,2.57,0,0,0-1.58-2.3C105.79,91.76,103.64,91.19,102,90.37Z" transform="translate(-6.2 -6.87)"/><path class="cls-1" d="M116.7,90.37c-2-1-3.14-2.09-3.14-4.68,0-3.27,2.73-5,6.85-5a11.83,11.83,0,0,1,5.73,1.28l-1,2.17A10.88,10.88,0,0,0,120.41,83c-2.56,0-3.89,1-3.89,2.51a2.65,2.65,0,0,0,1.79,2.43c1.36.66,3.4,1.25,5,2.07s3.07,1.92,3.07,4.66c0,3.24-2.74,5.14-6.91,5.14a13.86,13.86,0,0,1-6.13-1.41l1.07-2.23a10.89,10.89,0,0,0,5,1.23c2.84,0,4.06-1.07,4.06-2.58a2.57,2.57,0,0,0-1.58-2.3C120.46,91.76,118.31,91.19,116.7,90.37Z" transform="translate(-6.2 -6.87)"/><path class="cls-1" d="M150.08,94.11c0,3.81-2.81,5.37-6.19,5.37H136.6V80.94h6.93c3.71,0,6,1.28,6,4.63a4.06,4.06,0,0,1-2.81,4A4.4,4.4,0,0,1,150.08,94.11Zm-6.73-10.79h-3.88v5.42h4c1.94,0,3-1,3-2.76C146.47,83.78,145.07,83.32,143.35,83.32Zm.08,13.83c1.89,0,3.56-.59,3.56-3S145.5,91,143.56,91h-4.09v6.16Z" transform="translate(-6.2 -6.87)"/><path class="cls-1" d="M164.12,99.5a5.6,5.6,0,0,1-1.08.08,2.58,2.58,0,0,1-2.58-1.33,6.61,6.61,0,0,1-4.14,1.54c-3.43,0-4.25-1.87-4.25-4,0-3.3,2.3-4.07,5.63-4.07.76,0,1.56.06,2.3.11v-.62c0-2-.64-2.79-2.82-2.79a8.7,8.7,0,0,0-3.93.95l-.64-1.84a12.72,12.72,0,0,1,5.32-1.23c3.76,0,5,1.36,5,5.37V96c0,1.2.41,1.53,1.21,1.53Zm-9-3.81c0,1.33.51,2,2,2A5,5,0,0,0,160,96.59V93.85a12.59,12.59,0,0,0-2.36-.15C155.7,93.7,155.09,94.36,155.09,95.69Z" transform="translate(-6.2 -6.87)"/><path class="cls-1" d="M169.74,88.79v5.8c0,1.74.15,2.94,2.09,2.94a5.82,5.82,0,0,0,2.46-.56l.51,2a9.2,9.2,0,0,1-3.89.85c-3.32,0-4-1.82-4-4.45V88.79h-2.2V86.87l2.18-.26V84l2.89-.51v3.07h4.62v2.2Z" transform="translate(-6.2 -6.87)"/><path class="cls-1" d="M180.92,88.79v5.8c0,1.74.15,2.94,2.09,2.94a5.82,5.82,0,0,0,2.46-.56l.51,2a9.2,9.2,0,0,1-3.89.85c-3.32,0-4-1.82-4-4.45V88.79h-2.2V86.87l2.18-.26V84l2.89-.51v3.07h4.62v2.2Z" transform="translate(-6.2 -6.87)"/><path class="cls-1" d="M187.09,93q0-6.67,6.14-6.68c4.45,0,5.45,2.69,5.45,6.32v1.15h-8.62a4.83,4.83,0,0,0,.72,2.81,3.53,3.53,0,0,0,3,1.1,9.06,9.06,0,0,0,4.12-1l.62,1.85a11.11,11.11,0,0,1-5.17,1.33C188.63,99.79,187.09,97.53,187.09,93Zm8.6-1.2c0-2.46-.82-3.51-2.51-3.51-1.89,0-2.71.87-3,2.66l-.1.85Z" transform="translate(-6.2 -6.87)"/><path class="cls-1" d="M203.53,86.59l.18,1.56a4,4,0,0,1,1.4-1.15,5.26,5.26,0,0,1,2.61-.72,5.36,5.36,0,0,1,2,.36L209,89a3.25,3.25,0,0,0-1.59-.35,3.63,3.63,0,0,0-2.07.63,6.21,6.21,0,0,0-1.23,1v9.21h-2.86V90.19l-.36-3.6Z" transform="translate(-6.2 -6.87)"/><path class="cls-1" d="M210.63,86.59h3.2L217,96.1h.26l3-9.51h2.92l-5,13.78c-1.17,3.28-2.27,5.48-5.93,5.48a4.32,4.32,0,0,1-1.61-.18l.38-2a4.52,4.52,0,0,0,1,.1,2.75,2.75,0,0,0,2.41-1.07,23.24,23.24,0,0,0,1.32-3.12Z" transform="translate(-6.2 -6.87)"/><path class="cls-1" d="M238.1,80.94c5.93,0,9.31,2.55,9.31,9.33,0,7-4.27,9.21-10,9.21h-4.89V80.94Zm-.82,16.21c4.43,0,7.06-1.58,7.06-7.18,0-4.61-2.23-6.65-6.27-6.65h-2.66V97.15Z" transform="translate(-6.2 -6.87)"/><path class="cls-1" d="M250.12,81.14H253v2.59h-2.91Zm0,5.45H253V99.48h-2.86Z" transform="translate(-6.2 -6.87)"/><path class="cls-1" d="M261.29,97.43l3.3-10.84h3L263,99.48h-3.83l-4.43-12.89h3.07L261,97.43Z" transform="translate(-6.2 -6.87)"/><path class="cls-1" d="M269.28,81.14h2.92v2.59h-2.92Zm0,5.45h2.86V99.48h-2.86Z" transform="translate(-6.2 -6.87)"/><path class="cls-1" d="M280.39,91.88l1.61.54c1.61.46,2.87,1.43,2.87,3.43,0,2.71-2,3.94-5.53,3.94a12.07,12.07,0,0,1-4.91-.93l.9-2.09a8.41,8.41,0,0,0,4,.89c1.54,0,2.71-.33,2.71-1.53,0-.67-.54-1.2-1.63-1.64s-2.15-.66-3.07-1c-1.54-.53-2.71-1.43-2.71-3.37,0-2.69,2.4-3.84,5.39-3.84a12.12,12.12,0,0,1,4.73.85l-.89,2.07a8.82,8.82,0,0,0-3.84-.8c-1.81,0-2.68.57-2.68,1.44,0,.66.48,1.07,1.63,1.51C279.29,91.5,279.85,91.68,280.39,91.88Z" transform="translate(-6.2 -6.87)"/><path class="cls-1" d="M287.12,81.14H290v2.59h-2.91Zm0,5.45H290V99.48h-2.86Z" transform="translate(-6.2 -6.87)"/><path class="cls-1" d="M292.51,93c0-4.52,2-6.7,6.54-6.7s6,2.59,6,6.83c0,4.55-2,6.68-6.57,6.68S292.51,97.23,292.51,93Zm9.56-.1c0-2.48-.59-4.6-3-4.6-2.78,0-3.6,1.74-3.6,4.93,0,2.51.51,4.53,3,4.53C301.25,97.74,302.07,96.1,302.07,92.88Z" transform="translate(-6.2 -6.87)"/><path class="cls-1" d="M309.94,86.59l.11,1a6.41,6.41,0,0,1,1.61-.82,8.61,8.61,0,0,1,2.76-.51c3.43,0,4.22,1.74,4.22,4.73v8.47h-2.87V91.63c0-1.77-.28-3.07-2.2-3.07a4.75,4.75,0,0,0-2.68.79l-.51.33v9.8h-2.87V90l-.23-3.43Z" transform="translate(-6.2 -6.87)"/><path class="cls-2" d="M38.21,70.85a32,32,0,1,0-32-32,32,32,0,0,0,32,32" transform="translate(-6.2 -6.87)"/><polygon class="cls-3" points="30.73 17.96 30.73 46.03 39.65 46.03 39.65 43.5 33.3 43.5 33.3 17.96 30.73 17.96"/><path class="cls-3" d="M28,32.49a3.84,3.84,0,1,0-3.83-3.84A3.84,3.84,0,0,0,28,32.49" transform="translate(-6.2 -6.87)"/><path class="cls-3" d="M39.5,12.09l-1.28,0A26.79,26.79,0,1,0,65,38.86v-1.2H45.87v2.47H62.46s0,.32,0,.38A24.29,24.29,0,0,1,21,56,24.28,24.28,0,0,1,38.22,14.57c.28,0,1,0,1.28,0Z" transform="translate(-6.2 -6.87)"/><polygon class="cls-1" points="88.12 10.78 78.5 10.78 78.5 52.45 108.06 52.45 108.06 44.33 88.12 44.33 88.12 10.78"/><path class="cls-1" d="M135.44,43.43h7.84v7.29a22.15,22.15,0,0,1-6.95,1.1c-8.66,0-11.55-4.4-11.55-13.34,0-8.52,2.75-13.54,11.42-13.54,4.81,0,7.56,1.51,9.83,4.4l6-5.5C148.37,18.61,142,17,136,17c-13.48,0-20.56,7.35-20.56,21.38s6.39,21.52,20.49,21.52c6.47,0,12.79-1.65,16.23-4V35.66H135.44Z" transform="translate(-6.2 -6.87)"/><polygon class="cls-1" points="169.07 34.6 187.04 34.6 187.04 27.54 169.07 27.54 169.07 18.01 187.66 18.01 187.66 10.89 160.52 10.89 160.52 52.5 188.35 52.5 188.35 45.27 169.07 45.27 169.07 34.6"/><path class="cls-1" d="M215.27,29.76a17.14,17.14,0,0,0-9.18,2.47V30.45h-8.21V59.37h8.32V38.08A9.48,9.48,0,0,1,211,36.59c4.08,0,4.94,1.61,4.94,4.82v18h8.32v-20C224.28,33.6,222.21,29.76,215.27,29.76Z" transform="translate(-6.2 -6.87)"/><path class="cls-1" d="M273.35,29.7c-2.64,0-6.09,1.27-7.69,3.1V30.45h-8V59.37h8.32V39.46a8.75,8.75,0,0,1,6.78-3,9.37,9.37,0,0,1,4.07.92l1.9-6.71A12.34,12.34,0,0,0,273.35,29.7Z" transform="translate(-6.2 -6.87)"/><path class="cls-1" d="M241.9,29.7c-9.24,0-14.06,5.51-14.06,15,0,10.1,3.67,15.32,14.46,15.32,5.11,0,9.81-1.55,12-3l-1.55-5.45a21.7,21.7,0,0,1-9,2.18c-2.92,0-5.1-.86-6-1.84a7.81,7.81,0,0,1-1.61-5.16h18.71V44.16C254.87,35.9,251.14,29.7,241.9,29.7Zm-5.74,11.71c.12-4,2.07-6,5.51-6s5,2.47,5,6Z" transform="translate(-6.2 -6.87)"/><path class="cls-1" d="M298.14,31.54a13.23,13.23,0,0,0-6.71-1.84c-10.39,0-13.6,6.55-13.6,16.19,0,8.55,3.84,14.17,12.62,14.17a22.57,22.57,0,0,0,6.37-.8v2.58c0,4.48-2.52,6-7.34,6a17,17,0,0,1-7.18-1.61l-1.95,6a22.1,22.1,0,0,0,9.64,2c8.55,0,15.21-3.79,15.21-14.06V30.28h-6.6ZM296.76,53.4a10.68,10.68,0,0,1-3.33.46c-4.47,0-7.17-2.12-7.17-8.78,0-6.94,2.35-9.12,6.94-9.12a8.52,8.52,0,0,1,3.56.75Z" transform="translate(-6.2 -6.87)"/><path class="cls-1" d="M323.91,49.67h-1.09l-6.14-19.22h-8.84l11.65,29c-1.72,6.2-4,7.35-8.32,7.35a11.71,11.71,0,0,1-2.24-.18l-1,6.49a18.14,18.14,0,0,0,4.37.4c7.57,0,11.19-3.9,14.05-11.65l11.54-31.39h-8.26Z" transform="translate(-6.2 -6.87)"/><path class="cls-1" d="M538.33,29.76a17.12,17.12,0,0,0-9.18,2.47V30.45h-8.21V59.37h8.32V38.08a9.45,9.45,0,0,1,4.82-1.49c4.08,0,4.94,1.61,4.94,4.82v18h8.32v-20C547.34,33.6,545.27,29.76,538.33,29.76Z" transform="translate(-6.2 -6.87)"/><path class="cls-1" d="M369.84,36.82c-1.55-.63-4.48-1.55-6-2-5.16-1.43-8-2.76-8-6.14,0-2.53,1.67-4.48,7.35-4.48a22.44,22.44,0,0,1,10.84,3l3-6.66c-3.9-2.3-9.81-3.39-14-3.39-11.08,0-16.19,4.94-16.19,12,0,6.08,4.59,9.75,9.59,11.71,2.46.91,5.22,1.83,7.29,2.41,3.32.91,4.64,2.52,4.64,4.82,0,2.87-2,4.59-7.28,4.59a23.81,23.81,0,0,1-11.71-3.39l-3.16,7a31.82,31.82,0,0,0,14.92,3.79c10.33,0,16.36-5.16,16.36-12.34C377.47,41,373.85,38.54,369.84,36.82Z" transform="translate(-6.2 -6.87)"/><path class="cls-1" d="M395.15,29.7c-10.56,0-15,5-15,15.1,0,9.46,3.22,15.26,13.83,15.26,10.28,0,15.1-4.88,15.1-15C409,35.21,405.82,29.7,395.15,29.7Zm-1,24.34c-4.37,0-5.57-3.39-5.57-9.19,0-6.54,1.38-9.12,6.43-9.12,4.65,0,5.62,3.44,5.62,8.84C400.6,51.22,399.34,54,394.12,54Z" transform="translate(-6.2 -6.87)"/><path class="cls-1" d="M504.72,29.7c-10.56,0-15,5-15,15.1,0,9.46,3.21,15.26,13.83,15.26,10.27,0,15.1-4.88,15.1-15C518.61,35.21,515.39,29.7,504.72,29.7Zm-1,24.34c-4.36,0-5.56-3.39-5.56-9.19,0-6.54,1.38-9.12,6.43-9.12,4.64,0,5.62,3.44,5.62,8.84C510.17,51.22,508.91,54,503.68,54Z" transform="translate(-6.2 -6.87)"/><rect class="cls-1" x="405.98" y="10.72" width="8.38" height="41.78"/><rect class="cls-1" x="472.61" y="23.58" width="8.32" height="28.93"/><rect class="cls-1" x="472.56" y="10.61" width="8.44" height="6.71"/><path class="cls-1" d="M469.33,53.23c-2.76,0-3.77-.92-3.77-4.59V37h9.5V30.45h-9.5V23.5l-8,1.61v5.34h-4.9v6.48h4.9V49.68c0,7.63,2.3,10.38,8.82,10.38a20.7,20.7,0,0,0,9.85-2.29l-1.18-6A13.39,13.39,0,0,1,469.33,53.23Z" transform="translate(-6.2 -6.87)"/><path class="cls-1" d="M442.27,51.63a8.16,8.16,0,0,1-4.67,1.6c-3.77,0-4.61-1-4.61-4.7V30.45h-8.05v20c0,5.8,2,9.64,8.89,9.64a15.82,15.82,0,0,0,8.72-2.41l0,1.72h7.78V30.45h-8Z" transform="translate(-6.2 -6.87)"/></svg>